PathFileType	4	(X/Y/Z)	Kaydara	
DataRate	CameraRate	NumFrames	NumMarkers	Units	OrigDataRate	OrigDataStartFrame	OrigNumFrames	
120.00	120.00	7	29	mm	120.00	1	2847	
Frame#	Time	Pelvis			Left_hip			Left_knee			Left_ankle			Left_foot			Left_foot_End			Right_hip			Right_knee			Right_ankle			Right_foot			Right_foot_End			Spine1			Spine2			Spine3			Neck			Head			Head_End			Left_collar			Left_shoulder			Left_elbow			Left_wrist			Left_palm			Left_palm_End			Right_collar			Right_shoulder			Right_elbow			Right_wrist			Right_palm			Right_palm_End			
		X1	Y1	Z1	X2	Y2	Z2	X3	Y3	Z3	X4	Y4	Z4	X5	Y5	Z5	X6	Y6	Z6	X7	Y7	Z7	X8	Y8	Z8	X9	Y9	Z9	X10	Y10	Z10	X11	Y11	Z11	X12	Y12	Z12	X13	Y13	Z13	X14	Y14	Z14	X15	Y15	Z15	X16	Y16	Z16	X17	Y17	Z17	X18	Y18	Z18	X19	Y19	Z19	X20	Y20	Z20	X21	Y21	Z21	X22	Y22	Z22	X23	Y23	Z23	X24	Y24	Z24	X25	Y25	Z25	X26	Y26	Z26	X27	Y27	Z27	X28	Y28	Z28	X29	Y29	Z29	

1	0.000	996.91002	972.88002	-691.06003	940.77516	890.25250	-714.19810	945.51920	506.95908	-780.33847	852.96526	142.48018	-574.35320	855.68657	57.66706	-688.42963	855.68657	57.66706	-688.42963	1031.83036	883.87831	-637.46355	1095.91253	504.13297	-665.71302	1056.51702	104.45545	-536.47627	1159.84958	37.92601	-619.85019	1159.84958	37.92601	-619.85019	995.86117	1097.07333	-699.63864	993.63437	1234.71306	-710.24336	1000.22095	1289.84313	-718.62206	1017.61440	1499.98736	-744.83931	1055.61679	1575.25151	-803.52835	1055.61679	1575.25151	-803.52835	947.13623	1397.77040	-782.08943	850.15129	1415.42296	-870.39646	861.22013	1169.83848	-944.77122	1002.51642	971.17786	-1051.47743	1047.15887	895.60954	-1064.44014	1047.15887	895.60954	-1064.44014	1049.40004	1412.30428	-666.87274	1124.11405	1460.77697	-582.28077	1153.44272	1203.99947	-536.94416	1082.68999	1214.67613	-796.52393	1042.73852	1196.15828	-874.72362	1042.73852	1196.15828	-874.72362 
2	0.008	996.79001	972.89001	-690.45998	940.69993	890.25913	-713.69442	945.69785	507.02718	-780.17146	853.13919	142.39808	-574.45432	855.89742	57.61870	-688.55494	855.89742	57.61870	-688.55494	1031.70327	883.86346	-636.90017	1095.88963	504.13308	-665.11410	1056.69771	104.35599	-536.12360	1158.78724	36.28878	-619.78708	1158.78724	36.28878	-619.78708	995.70441	1097.08883	-698.95388	993.44855	1234.73394	-709.48242	1000.03590	1289.86743	-717.83793	1017.46316	1500.01296	-744.02228	1055.52292	1575.28006	-802.67035	1055.52292	1575.28006	-802.67035	947.01461	1397.80224	-781.34548	850.07773	1415.47062	-869.70211	861.21603	1169.96256	-944.31840	1002.56401	971.35577	-1051.05634	1047.29524	895.84362	-1064.04025	1047.29524	895.84362	-1064.04025	1049.17295	1412.32216	-666.03352	1123.82252	1460.78188	-581.37724	1153.41299	1204.04975	-535.95397	1082.92523	1214.49486	-795.61524	1043.05366	1195.85170	-873.82593	1043.05366	1195.85170	-873.82593 
3	0.017	996.58997	972.97997	-689.86000	940.53425	890.35267	-713.18991	945.74563	507.18806	-780.03775	853.16433	142.39291	-574.62542	855.93993	57.65270	-688.75472	855.93993	57.65270	-688.75472	1031.48492	883.92471	-636.33598	1095.70435	504.19733	-664.51496	1056.61757	104.31946	-535.80526	1158.28374	35.75616	-619.57912	1158.28374	35.75616	-619.57912	995.48330	1097.18428	-698.27049	993.21033	1234.83498	-708.72187	999.79839	1289.97216	-717.05246	1017.24314	1500.12205	-743.19009	1055.34576	1575.39873	-801.79802	1055.34576	1575.39873	-801.79802	946.82326	1397.91669	-780.58200	849.93790	1415.60088	-868.99196	861.12058	1170.13198	-943.73034	1002.51702	971.56634	-1050.48067	1047.27952	896.07454	-1063.47515	1047.27952	896.07454	-1063.47515	1048.89585	1412.41901	-665.19191	1123.49982	1460.86117	-580.48540	1153.35022	1204.16903	-535.00614	1083.18646	1214.33565	-794.76619	1043.38667	1195.54244	-872.97754	1043.38667	1195.54244	-872.97754 
4	0.025	996.38000	973.09998	-689.20998	940.36345	890.47124	-712.62867	945.77086	507.37096	-779.82870	853.24032	142.38274	-574.73669	856.01449	57.68517	-688.89766	856.01449	57.68517	-688.89766	1031.26184	884.02233	-635.71467	1095.66408	504.34548	-664.15618	1056.72434	104.36044	-535.73525	1158.31429	35.68263	-619.50778	1158.31429	35.68263	-619.50778	995.24505	1097.30898	-697.54700	992.94821	1234.96453	-707.92918	999.53529	1290.10544	-716.23582	1016.99506	1500.26055	-742.32140	1055.13846	1575.54912	-800.88753	1055.13846	1575.54912	-800.88753	946.60408	1398.06093	-779.78334	849.77714	1415.75915	-868.25447	861.00552	1170.32000	-943.08364	1002.49782	971.81891	-1049.82701	1047.28297	896.34095	-1062.82385	1047.28297	896.34095	-1062.82385	1048.59305	1412.54344	-664.31685	1123.13148	1460.97098	-579.54432	1153.22339	1204.32281	-533.97620	1083.37991	1214.16340	-793.83510	1043.63409	1195.17816	-872.02751	1043.63409	1195.17816	-872.02751 
5	0.033	996.16997	973.22998	-688.59001	940.17844	890.60894	-712.09557	945.74881	507.57803	-779.67662	853.24856	142.39003	-574.92687	856.00206	57.73748	-689.12174	856.00206	57.73748	-689.12174	1031.02344	884.12519	-635.12144	1095.69538	504.52396	-663.95759	1056.90174	104.42221	-535.85640	1158.38571	35.61938	-619.65479	1158.38571	35.61938	-619.65479	995.02800	1097.44364	-696.85641	992.73139	1235.10417	-707.17234	999.32743	1290.24747	-715.45599	1016.84139	1500.40422	-741.49202	1055.03914	1575.69619	-800.01834	1055.03914	1575.69619	-800.01834	946.45948	1398.22322	-779.02175	849.68732	1415.95359	-867.54636	860.91654	1170.53558	-942.44470	1002.43938	972.05044	-1049.17725	1047.22487	896.57311	-1062.17655	1047.22487	896.57311	-1062.17655	1048.36935	1412.66792	-663.48071	1122.84571	1461.06849	-578.63825	1153.15247	1204.45427	-533.02135	1083.78840	1214.09224	-793.01622	1044.06762	1194.88291	-871.16660	1044.06762	1194.88291	-871.16660 
6	0.042	995.87997	973.33000	-687.94998	939.91091	890.71674	-711.53625	945.67805	507.74619	-779.44211	853.23115	142.37601	-574.99351	855.95554	57.78930	-689.23785	855.95554	57.78930	-689.23785	1030.71598	884.19637	-634.51812	1095.44037	504.60631	-663.38361	1056.76588	104.38493	-535.62056	1158.15115	35.46809	-619.44473	1158.15115	35.46809	-619.44473	994.72730	1097.54862	-696.14014	992.42310	1235.21454	-706.38210	999.02146	1290.36140	-714.64016	1016.55461	1500.52442	-740.61262	1054.78533	1575.82956	-799.10044	1054.78533	1575.82956	-799.10044	946.18943	1398.35506	-778.20536	849.45096	1416.11346	-866.76117	860.68960	1170.71519	-941.72280	1002.25030	972.26085	-1048.46240	1047.04460	896.79014	-1061.46982	1047.04460	896.79014	-1061.46982	1048.03971	1412.76705	-662.60770	1122.47037	1461.14439	-577.71190	1152.97316	1204.56792	-532.01338	1083.97619	1214.00433	-792.11330	1044.29182	1194.54890	-870.22130	1044.29182	1194.54890	-870.22130 
7	0.050	995.70000	973.44002	-687.30003	939.74435	890.84146	-710.96946	945.65459	507.92863	-779.18784	853.27161	142.36923	-575.04882	855.93981	57.86486	-689.35540	855.93981	57.86486	-689.35540	1030.50875	884.27214	-633.90756	1095.22747	504.67692	-662.71787	1056.62721	104.32980	-535.32684	1157.92075	35.32263	-619.18758	1157.92075	35.32263	-619.18758	994.55026	1097.66391	-695.41026	992.25453	1235.33566	-705.57548	998.86232	1290.48520	-713.80801	1016.44519	1500.65144	-739.72076	1054.71657	1575.96533	-798.17072	1054.71657	1575.96533	-798.17072	946.07990	1398.50375	-777.37213	849.36782	1416.30014	-865.94914	860.56716	1170.91580	-940.96222	1002.11233	972.45596	-1047.71218	1046.89631	896.98071	-1060.72880	1046.89631	896.98071	-1060.72880	1047.87735	1412.86945	-661.72220	1122.28523	1461.21408	-576.78780	1152.99136	1204.67855	-530.99571	1084.34114	1213.89174	-791.19537	1044.71057	1194.25369	-869.28498	1044.71057	1194.25369	-869.28498 
